<svg width="28" height="28" viewBox="0 0 28 28" fill="none" xmlns="http://www.w3.org/2000/svg">
<rect width="28" height="28" rx="5" fill="#8F34FF"/>
<path d="M21.4286 14.1429C21.4286 14.7747 20.9168 15.2861 20.2857 15.2861H15.1428V20.4289C15.1428 21.0607 14.6311 21.5714 14 21.5714C13.3689 21.5714 12.8571 21.0607 12.8571 20.4289V15.2861H7.71427C7.0832 15.2861 6.57141 14.7747 6.57141 14.1429C6.57141 13.5111 7.0832 13.0004 7.71427 13.0004H12.8571V7.85751C12.8571 7.22572 13.3689 6.71429 14 6.71429C14.6311 6.71429 15.1428 7.22572 15.1428 7.85751V13.0004H20.2857C20.9179 13 21.4286 13.5107 21.4286 14.1429Z" fill="white"/>
</svg>
