<svg width="63" height="63" viewBox="0 0 63 63" fill="none" xmlns="http://www.w3.org/2000/svg">
<rect width="63" height="63" rx="5" fill="#8F34FF"/>
<path d="M48.75 32C48.75 33.382 47.6305 34.5008 46.25 34.5008H35V45.7508C35 47.1328 33.8805 48.25 32.5 48.25C31.1195 48.25 30 47.1328 30 45.7508V34.5008H18.75C17.3695 34.5008 16.25 33.382 16.25 32C16.25 30.618 17.3695 29.5008 18.75 29.5008H30V18.2508C30 16.8688 31.1195 15.75 32.5 15.75C33.8805 15.75 35 16.8688 35 18.2508V29.5008H46.25C47.6328 29.5 48.75 30.6172 48.75 32Z" fill="white"/>
</svg>
