<svg width="58" height="58" viewBox="0 0 58 58" fill="none" xmlns="http://www.w3.org/2000/svg">
<rect width="58" height="58" fill="#8F34FF"/>
<path d="M28.183 34.7545C27.4531 35.4844 26.2612 35.4844 25.5313 34.7545L21.2455 30.4687C20.5136 29.7388 20.5136 28.5469 21.2455 27.817C21.9754 27.087 23.1674 27.087 23.8973 27.817L26.8571 30.7768L34.1027 23.5312C34.8326 22.8013 36.0246 22.8013 36.7545 23.5312C37.4844 24.2612 37.4844 25.4531 36.7545 26.183L28.183 34.7545ZM14 18.4286C14 16.0614 15.9185 14.1429 18.2857 14.1429H39.7143C42.0781 14.1429 44 16.0614 44 18.4286V39.8571C44 42.221 42.0781 44.1428 39.7143 44.1428H18.2857C15.9185 44.1428 14 42.221 14 39.8571V18.4286ZM17.2143 18.4286V39.8571C17.2143 40.4464 17.6938 40.9286 18.2857 40.9286H39.7143C40.3036 40.9286 40.7857 40.4464 40.7857 39.8571V18.4286C40.7857 17.8366 40.3036 17.3571 39.7143 17.3571H18.2857C17.6938 17.3571 17.2143 17.8366 17.2143 18.4286Z" fill="white"/>
</svg>
