<svg width="58" height="58" viewBox="0 0 58 58" fill="none" xmlns="http://www.w3.org/2000/svg">
<rect width="58" height="58" fill="#8F34FF"/>
<path d="M42.7285 16.3672C44.0117 17.6486 44.0117 19.7264 42.7285 21.0078L40.9707 22.7715L35.2285 17.0305L36.9922 15.2691C38.2754 13.9875 40.3496 13.9875 41.6328 15.2691L42.7285 16.3672ZM24.1016 28.1621L33.9043 18.3558L39.6465 24.0957L29.8379 33.8984C29.4805 34.2617 29.041 34.5312 28.5547 34.6953L23.3516 36.4297C22.7949 36.5937 22.291 36.4648 21.9102 36.0371C21.5352 35.709 21.4063 35.1523 21.5703 34.6484L23.3047 29.4453C23.4688 28.959 23.7383 28.5195 24.1016 28.1621ZM25.25 17.6973C26.2871 17.6973 27.125 18.5896 27.125 19.5723C27.125 20.6621 26.2871 21.4473 25.25 21.4473H19.625C18.5896 21.4473 17.75 22.3379 17.75 23.3223V38.375C17.75 39.4121 18.5896 40.25 19.625 40.25H34.625C35.6621 40.25 36.5 39.4121 36.5 38.375V32.6973C36.5 31.7129 37.3379 30.8223 38.375 30.8223C39.4121 30.8223 40.25 31.7129 40.25 32.6973V38.375C40.25 41.4805 37.7305 44 34.625 44H19.625C16.5184 44 14 41.4805 14 38.375V23.3223C14 20.2168 16.5184 17.6973 19.625 17.6973H25.25Z" fill="white"/>
</svg>
