<svg width="58" height="58" viewBox="0 0 58 58" fill="none" xmlns="http://www.w3.org/2000/svg">
<path d="M0 0H54C56.2091 0 58 1.79086 58 4V54C58 56.2091 56.2091 58 54 58H0V0Z" fill="#E54E3D"/>
<g clip-path="url(#clip0_4_86)">
<path d="M24.9411 16.9082C25.2183 16.3516 25.7882 16 26.4094 16H32.5906C33.2118 16 33.7817 16.3516 34.0589 16.9082L34.4286 17.6429H39.3571C40.2658 17.6429 41 18.3785 41 19.2857C41 20.1929 40.2658 20.9286 39.3571 20.9286H19.6429C18.7357 20.9286 18 20.1929 18 19.2857C18 18.3785 18.7357 17.6429 19.6429 17.6429H24.5714L24.9411 16.9082ZM38.2688 39.9292C38.1866 41.2743 37.1136 42.2857 35.8096 42.2857H23.1904C21.889 42.2857 20.8119 41.2743 20.7307 39.9292L19.5967 22.5714H39.3571L38.2688 39.9292Z" fill="white"/>
</g>
<defs>
<clipPath id="clip0_4_86">
<rect width="23" height="26.2857" fill="white" transform="translate(18 16)"/>
</clipPath>
</defs>
</svg>
